<?xml version="1.0" encoding="UTF-8" standalone="no"?>
<!DOCTYPE svg PUBLIC "-//W3C//DTD SVG 1.1//EN" "http://www.w3.org/Graphics/SVG/1.1/DTD/svg11.dtd">
<svg width="100%" height="100%" viewBox="0 0 1024 1024" version="1.1" xmlns="http://www.w3.org/2000/svg" xmlns:xlink="http://www.w3.org/1999/xlink" xml:space="preserve" xmlns:serif="http://www.serif.com/" style="fill-rule:evenodd;clip-rule:evenodd;stroke-linecap:round;stroke-linejoin:round;">
    <g transform="matrix(1.04427,0,0,1.04427,-22.6652,-22.6652)">
        <g transform="matrix(48.9444,0,0,48.9444,-75.3333,-75.3333)">
            <path d="M21,3.039C21,3.018 20.982,3 20.961,3L3.039,3C3.018,3 3,3.018 3,3.039L3,20.961C3,20.982 3.018,21 3.039,21L20.961,21C20.982,21 21,20.982 21,20.961L21,3.039Z" style="fill:rgb(34,34,34);stroke:rgb(34,34,34);stroke-width:2px;"/>
        </g>
        <g transform="matrix(0.906924,0,0,0.906924,48.1084,48.1084)">
            <g transform="matrix(48.9444,0,0,48.9444,-75.8333,-75.8333)">
                <path d="M21,3.043C21,3.019 20.981,3 20.957,3L3.043,3C3.019,3 3,3.019 3,3.043L3,20.957C3,20.981 3.019,21 3.043,21L20.957,21C20.981,21 21,20.981 21,20.957L21,3.043Z" style="fill:none;stroke:rgb(255,170,85);stroke-width:2px;"/>
            </g>
            <g transform="matrix(48.9444,0,0,48.9444,-75.8333,-75.8333)">
                <path d="M9,17C10.93,17 11.85,16 11.85,14.2L11.85,9.99C11.85,8.06 12.88,6.73 15,7.06M9,11.24L14.66,11.24" style="fill:none;fill-rule:nonzero;stroke:rgb(255,170,85);stroke-width:2px;"/>
            </g>
        </g>
    </g>
</svg>
